<svg width="16" height="14" viewBox="0 0 16 14" fill="none" xmlns="http://www.w3.org/2000/svg">
<path d="M15.3871 11.0424C15.3871 11.3993 15.0977 11.6886 14.7408 11.6886H1.58372C1.22682 11.6886 0.9375 11.3993 0.9375 11.0424C0.9375 10.6855 1.22682 10.3962 1.58372 10.3962H1.65998V5.89266C1.65998 2.66931 4.57156 0.0566406 8.16228 0.0566406C11.753 0.0566406 14.6646 2.66931 14.6646 5.89266V10.3962H14.7408C15.0977 10.3962 15.3871 10.6855 15.3871 11.0424ZM3.10493 10.3962H13.2196V5.89266C13.2196 3.38339 10.9554 1.34908 8.16228 1.34908C5.36918 1.34908 3.10493 3.38339 3.10493 5.89266V10.3962ZM6.53514 13.0362C6.3436 12.6806 6.68347 12.3348 7.08733 12.3348H9.23722C9.64108 12.3348 9.98095 12.6806 9.78941 13.0362C9.70211 13.1982 9.58436 13.3476 9.43945 13.4772C9.10072 13.7802 8.64131 13.9504 8.16228 13.9504C7.68324 13.9504 7.22383 13.7802 6.8851 13.4772C6.74019 13.3476 6.62244 13.1982 6.53514 13.0362Z" fill="#C1C1C1"/>
</svg>
