<svg width="12" height="12" viewBox="0 0 12 12" fill="none" xmlns="http://www.w3.org/2000/svg">
<path fill-rule="evenodd" clip-rule="evenodd" d="M1.99272 8.99715C0.101384 7.10581 0.101384 4.03934 1.99272 2.148C3.88406 0.256657 6.95053 0.256657 8.84187 2.148C10.5708 3.87687 10.7193 6.58767 9.2874 8.48523L11.198 10.3958C11.6965 10.8943 10.9488 11.642 10.4503 11.1435L10.45 11.1433L10.4499 11.1433L8.5624 9.2558C6.6596 10.8842 3.79351 10.7979 1.99272 8.99715ZM8.09384 2.8959C6.61545 1.41751 4.21852 1.41751 2.74014 2.8959C1.26175 4.37428 1.26175 6.77122 2.74014 8.2496C4.21852 9.72798 6.61545 9.72798 8.09384 8.2496C9.57222 6.77122 9.57222 4.37428 8.09384 2.8959Z" fill="#0276FD"/>
</svg>
