<svg width="17" height="15" viewBox="0 0 17 15" fill="none" xmlns="http://www.w3.org/2000/svg">
<path fill-rule="evenodd" clip-rule="evenodd" d="M10.9694 10.7966C9.88194 11.5666 8.51546 12.0252 7.0314 12.0252C3.48461 12.0252 0.609375 9.40606 0.609375 6.1752C0.609375 2.94433 3.48461 0.325195 7.0314 0.325195C10.5782 0.325195 13.4534 2.94433 13.4534 6.1752C13.4534 7.52707 12.95 8.77183 12.1047 9.76245L16.4293 13.7019C16.7428 13.9874 16.7428 14.4504 16.4293 14.736C16.1158 15.0216 15.6075 15.0216 15.294 14.736L10.9694 10.7966ZM11.8479 6.1752C11.8479 8.59834 9.69149 10.5627 7.0314 10.5627C4.37131 10.5627 2.21488 8.59834 2.21488 6.1752C2.21488 3.75205 4.37131 1.7877 7.0314 1.7877C9.69149 1.7877 11.8479 3.75205 11.8479 6.1752Z" fill="#C1C1C1"/>
</svg>
