<svg width="16" height="10" viewBox="0 0 16 10" fill="none" xmlns="http://www.w3.org/2000/svg">
<path d="M5.95703 1.17236H9.94277V8.33404H5.95703V1.17236Z" fill="#FF5F00"/>
<path d="M6.20877 4.75337C6.20877 3.29826 6.89204 2.00764 7.94225 1.17254C7.17041 0.565185 6.19612 0.198242 5.13326 0.198242C2.61528 0.198242 0.578125 2.2354 0.578125 4.75337C0.578125 7.27135 2.61528 9.3085 5.13326 9.3085C6.19612 9.3085 7.17041 8.94157 7.94225 8.33422C6.89204 7.51176 6.20877 6.20848 6.20877 4.75337Z" fill="#EB001B"/>
<path d="M15.3212 4.75337C15.3212 7.27135 13.284 9.3085 10.766 9.3085C9.70317 9.3085 8.72887 8.94157 7.95703 8.33422C9.0199 7.49911 9.69051 6.20848 9.69051 4.75337C9.69051 3.29826 9.00724 2.00764 7.95703 1.17254C8.72887 0.565185 9.70317 0.198242 10.766 0.198242C13.284 0.198242 15.3212 2.24805 15.3212 4.75337Z" fill="#F79E1B"/>
</svg>
